<?xml version="1.0" standalone="no"?>
<!DOCTYPE svg PUBLIC "-//W3C//DTD SVG 20010904//EN"
 "http://www.w3.org/TR/2001/REC-SVG-20010904/DTD/svg10.dtd">
<svg version="1.0" xmlns="http://www.w3.org/2000/svg"
 width="500.000000pt" height="500.000000pt" viewBox="0 0 500.000000 500.000000"
 preserveAspectRatio="xMidYMid meet">
<metadata>
Created by potrace 1.14, written by Peter Selinger 2001-2017
</metadata>
<g transform="translate(0.000000,500.000000) scale(0.100000,-0.100000)"
fill="#000000" stroke="none">
<path d="M1 4513 c0 -456 1 -486 16 -449 14 32 14 39 2 47 -8 5 -9 9 -3 9 11
0 26 38 28 70 1 16 36 27 36 11 0 -6 6 -8 14 -5 8 3 17 0 22 -7 5 -8 3 -10 -6
-4 -9 6 -11 4 -6 -4 5 -7 14 -10 22 -7 8 3 13 1 11 -4 -1 -6 13 -20 31 -31 28
-19 31 -19 25 -3 -4 12 -3 15 5 10 7 -4 12 -13 12 -20 0 -7 10 -21 22 -32 12
-10 18 -13 13 -5 -5 9 2 7 17 -5 14 -10 23 -23 20 -28 -3 -5 0 -6 6 -2 7 4 12
2 12 -3 0 -6 7 -11 16 -11 9 0 12 -5 8 -12 -5 -7 -2 -9 8 -5 20 7 61 -21 52
-35 -4 -7 -2 -8 4 -4 7 4 12 2 12 -3 0 -6 7 -11 15 -11 15 0 19 11 16 38 -1 8
5 23 15 33 25 28 11 23 -22 -7 -16 -16 -30 -22 -32 -15 -2 6 -10 11 -18 11 -8
0 -14 7 -14 15 0 8 4 15 9 15 5 0 11 -7 15 -15 8 -23 29 -18 51 13 12 18 14
23 3 14 -21 -17 -44 7 -25 28 10 12 9 12 -6 1 -9 -8 -19 -12 -20 -10 -1 2 -9
13 -17 23 -12 16 -12 18 -1 11 10 -6 12 -4 6 4 -4 7 -15 11 -25 8 -11 -3 -17
0 -14 7 2 6 -10 22 -26 36 -17 14 -41 34 -54 46 -47 42 -79 64 -85 60 -4 -3
-7 17 -7 44 0 39 3 47 13 38 10 -8 13 -6 13 6 0 11 5 14 12 10 6 -4 8 -3 5 3
-7 11 21 40 32 36 3 -2 6 3 6 10 1 6 7 11 14 9 7 -1 10 1 7 6 -6 11 37 54 47
47 4 -3 3 0 -2 7 -8 8 -14 8 -26 -2 -8 -7 -18 -10 -21 -7 -8 8 35 29 46 22 5
-3 11 -1 15 5 4 6 11 7 17 4 5 -4 4 4 -3 17 -16 28 -20 59 -8 59 5 0 8 -10 6
-21 -1 -12 4 -24 11 -26 8 -3 10 1 5 14 -6 15 -4 16 9 5 13 -10 17 -10 22 3 3
9 10 14 15 11 4 -3 16 3 26 14 14 16 15 22 5 35 -7 8 -16 13 -20 10 -4 -3 -10
4 -13 15 -3 11 -1 20 4 20 5 0 9 71 9 160 l0 160 -205 0 -205 0 1 -487z m402
94 c3 -8 -3 -14 -15 -14 -16 -2 -17 1 -8 13 15 17 17 17 23 1z m-85 -520 c2
-9 -2 -17 -8 -17 -7 0 -9 7 -6 16 5 12 1 14 -17 9 -17 -5 -19 -4 -7 4 19 14
34 9 38 -12z"/>
<path d="M487 4827 c-10 -26 -9 -67 2 -67 15 0 18 12 11 50 -4 27 -7 31 -13
17z"/>
<path d="M565 4830 c-3 -5 -2 -10 4 -10 5 0 13 5 16 10 3 6 2 10 -4 10 -5 0
-13 -4 -16 -10z"/>
<path d="M737 4755 c3 -8 9 -12 14 -9 12 7 11 11 -5 17 -10 4 -13 1 -9 -8z"/>
<path d="M564 4737 c0 -15 2 -16 11 -4 5 7 17 16 25 20 8 3 4 5 -10 4 -18 -1
-26 -7 -26 -20z"/>
<path d="M414 4679 c-10 -17 23 -44 59 -45 17 -1 26 1 20 3 -7 3 -13 10 -13
17 0 7 -11 18 -25 24 -32 15 -32 15 -41 1z"/>
<path d="M490 4660 c0 -5 5 -10 10 -10 6 0 10 5 10 10 0 6 -4 10 -10 10 -5 0
-10 -4 -10 -10z"/>
<path d="M559 4613 c-1 -5 -1 -11 0 -15 0 -5 -5 -7 -11 -5 -7 1 -13 -5 -13
-13 0 -26 28 -16 36 13 4 15 3 27 -2 27 -5 0 -10 -3 -10 -7z"/>
<path d="M475 4600 c-4 -6 -11 -7 -17 -4 -7 5 -8 2 -3 -5 5 -9 10 -10 18 -2 8
8 14 3 23 -17 l12 -27 1 33 c1 32 -20 45 -34 22z"/>
<path d="M596 4557 c3 -10 9 -15 12 -12 3 3 0 11 -7 18 -10 9 -11 8 -5 -6z"/>
<path d="M525 4540 c-3 -5 1 -10 9 -10 9 0 16 5 16 10 0 6 -4 10 -9 10 -6 0
-13 -4 -16 -10z"/>
<path d="M574 4525 c0 -14 7 -25 14 -25 16 0 15 18 -2 35 -12 12 -14 11 -12
-10z"/>
<path d="M646 4483 c-6 -14 -5 -15 5 -6 7 7 10 15 7 18 -3 3 -9 -2 -12 -12z"/>
<path d="M645 4450 c-3 -5 -1 -10 4 -10 6 0 11 5 11 10 0 6 -2 10 -4 10 -3 0
-8 -4 -11 -10z"/>
<path d="M610 4446 c0 -2 8 -10 18 -17 15 -13 16 -12 3 4 -13 16 -21 21 -21
13z"/>
<path d="M724 4429 c-3 -6 -2 -15 4 -21 6 -6 12 -6 17 3 6 8 4 10 -5 4 -10 -6
-12 -4 -7 8 7 19 2 23 -9 6z"/>
<path d="M3183 4376 c-57 -30 -103 -52 -103 -49 0 3 -15 -8 -33 -24 -18 -16
-65 -50 -105 -76 -68 -46 -222 -185 -222 -201 0 -18 -86 -125 -97 -121 -7 3
-13 0 -13 -5 0 -6 5 -10 12 -10 6 0 4 -7 -5 -18 -10 -10 -17 -23 -17 -29 0 -6
-7 -16 -15 -23 -10 -9 -15 -9 -15 -1 0 6 4 11 9 11 9 0 23 41 17 48 -2 1 -14
-14 -27 -35 -13 -21 -28 -43 -35 -50 -6 -6 -24 -58 -40 -115 -29 -103 -29
-104 -26 -353 4 -344 20 -463 91 -650 31 -81 37 -89 22 -24 -5 22 -3 66 5 117
7 45 11 118 9 162 -3 51 -1 79 5 75 6 -3 10 -10 10 -15 0 -5 12 -35 27 -66 26
-56 27 -57 13 -138 -15 -91 -21 -270 -9 -301 7 -18 8 -18 9 5 1 14 8 -2 15
-35 19 -91 25 -136 16 -131 -27 17 74 -149 149 -245 49 -62 89 -121 87 -129
-2 -10 -15 -15 -42 -16 -26 0 -69 -15 -120 -41 -44 -22 -102 -48 -130 -58 -64
-24 -62 -21 -38 -48 11 -12 24 -33 28 -47 8 -25 8 -25 -14 -6 -11 11 -38 22
-59 25 l-37 7 22 19 c20 17 21 21 8 36 -12 12 -27 15 -65 11 -46 -4 -50 -3
-50 17 0 42 -19 64 -51 57 -19 -4 -29 -1 -29 7 0 7 -3 8 -8 2 -10 -14 -35 -18
-27 -5 4 6 1 10 -6 9 -8 -1 -22 1 -33 6 -11 5 -21 3 -26 -5 -6 -9 -9 -9 -15
-1 -5 9 -10 9 -21 0 -11 -9 -14 -8 -14 3 0 17 32 48 80 77 39 23 30 29 -10 6
-32 -18 -50 -19 -50 -1 0 18 89 190 101 194 5 2 9 12 9 23 0 10 8 27 18 37 9
9 16 26 14 37 -2 13 16 39 49 74 59 62 79 103 79 163 0 59 -21 88 -60 83 -18
-2 -30 1 -30 8 0 7 -4 6 -10 -3 -16 -24 -11 -2 6 32 13 24 15 51 12 116 -3 46
-9 87 -15 90 -5 4 -13 36 -17 72 -11 94 -67 293 -86 305 -6 3 -10 12 -10 20 0
8 -16 49 -36 92 -99 213 -124 259 -151 279 -43 32 -90 54 -115 54 -12 0 -32
12 -45 28 -12 15 -22 21 -23 15 0 -7 5 -13 12 -13 6 0 8 -3 5 -6 -4 -4 -12 -2
-19 3 -7 5 -40 15 -73 22 -33 8 -87 20 -120 29 -33 8 -78 17 -100 20 -22 2
-46 9 -54 15 -19 16 -183 16 -188 1 -3 -8 -18 -10 -41 -7 -20 2 -55 0 -77 -5
-133 -34 -172 -46 -190 -61 -11 -9 -33 -23 -50 -31 -16 -8 -40 -23 -53 -34
-12 -11 -22 -15 -22 -9 0 6 6 14 13 16 6 3 -2 6 -18 6 -31 1 -65 -26 -65 -52
0 -6 -21 -27 -46 -46 -25 -19 -66 -55 -92 -80 -25 -25 -40 -38 -33 -28 12 15
11 17 -3 17 -9 0 -19 -7 -22 -15 -4 -8 -12 -15 -19 -15 -8 0 -17 -5 -21 -12
-5 -7 -3 -8 7 -3 12 7 12 6 1 -7 -14 -17 -1 -34 18 -23 5 3 -3 -16 -20 -42
-33 -54 -65 -209 -57 -280 5 -48 1 -58 -31 -67 -19 -6 -35 4 -97 64 -64 63
-80 73 -118 77 -40 5 -47 3 -62 -21 -12 -18 -16 -37 -12 -61 4 -24 -1 -50 -15
-81 -19 -44 -20 -68 -3 -121 7 -22 5 -23 -36 -22 -24 1 -51 7 -59 14 -18 15
-62 27 -55 15 3 -5 0 -12 -6 -16 -8 -4 -9 -3 -5 4 9 15 -26 32 -52 25 -21 -5
-22 -11 -22 -128 l0 -123 25 -6 c14 -4 31 -4 36 0 6 3 41 3 77 -1 53 -6 62
-10 42 -16 -24 -7 -24 -7 5 -8 37 -2 102 -10 133 -17 20 -4 22 -10 22 -60 0
-47 -3 -56 -22 -63 l-22 -8 21 -11 c13 -7 23 -25 27 -51 4 -26 20 -56 46 -86
63 -73 61 -75 -92 -71 -73 2 -138 -1 -144 -6 -8 -5 -17 -4 -25 5 -8 7 -39 14
-72 14 l-57 1 0 -89 c0 -83 1 -89 21 -89 12 0 17 4 14 11 -5 7 22 9 87 6 53
-3 84 -1 73 3 -12 5 26 8 95 8 63 0 188 3 277 7 89 4 171 4 182 0 15 -4 51
-68 51 -89 0 -13 -108 -15 -157 -2 -86 22 -279 39 -352 32 -61 -7 -100 -19
-112 -38 -11 -16 -115 -133 -147 -165 -27 -26 -33 -39 -30 -65 2 -24 8 -33 20
-32 10 1 14 -4 11 -12 -3 -8 0 -14 6 -14 6 0 11 5 11 10 0 16 37 11 44 -6 5
-13 9 -14 21 -4 19 16 19 11 -1 -30 l-17 -33 -13 29 -14 29 6 -38 c4 -29 2
-37 -7 -31 -9 5 -10 -1 -6 -24 5 -24 3 -32 -8 -32 -8 0 -15 4 -15 9 0 5 -9 7
-20 4 -14 -4 -20 -14 -20 -35 0 -25 2 -27 19 -19 17 10 31 6 31 -9 0 -4 -11
-12 -25 -18 l-25 -12 0 -300 0 -300 94 91 c87 83 276 228 276 211 0 -4 4 -2 8
4 16 24 211 71 335 80 l87 7 0 -26 c0 -46 19 -74 46 -69 29 5 33 -21 8 -56
-18 -26 -36 -28 -55 -6 -10 12 -10 20 -1 35 16 24 6 24 -66 -2 -31 -11 -91
-32 -132 -46 -41 -14 -104 -38 -139 -54 -35 -16 -70 -29 -77 -29 -8 0 -14 -4
-14 -10 0 -5 -7 -10 -15 -10 -8 0 -23 -8 -33 -18 -11 -9 -34 -25 -52 -35 -24
-13 -31 -22 -27 -37 3 -11 2 -20 -1 -20 -4 0 -15 -14 -24 -30 -19 -34 -43 -41
-35 -10 6 25 -5 26 -26 2 -21 -23 -21 -36 -3 -51 11 -9 18 -8 30 4 9 9 16 13
16 9 0 -4 9 2 21 14 11 12 18 26 15 31 -3 5 1 11 9 15 8 3 15 11 15 18 0 7 21
21 48 32 26 10 66 27 89 37 24 10 45 19 48 19 5 0 132 58 231 106 39 19 76 34
82 34 6 0 17 -12 24 -27 19 -40 43 -40 83 0 25 25 35 44 35 66 0 27 4 31 28
32 l27 1 -31 9 c-65 19 -67 62 -6 79 48 13 113 13 149 -1 l27 -10 -34 -22 -35
-22 39 -3 c28 -2 42 1 48 12 11 20 32 21 24 1 -4 -10 1 -15 14 -15 11 0 20 7
20 15 0 8 12 17 27 21 16 3 37 8 48 11 16 4 14 0 -9 -23 l-30 -28 32 -7 c18
-4 38 -11 44 -16 7 -5 42 -21 78 -36 36 -14 78 -32 95 -41 35 -18 48 -12 18 9
-11 8 -30 30 -41 50 -19 32 -20 36 -5 51 13 12 29 15 72 11 31 -3 67 -8 81
-11 20 -5 21 -5 5 2 -18 8 -17 9 8 14 29 6 45 -6 26 -18 -14 -8 8 -24 36 -24
11 0 33 -7 50 -16 16 -8 39 -13 52 -10 12 4 25 2 28 -4 8 -13 72 -13 80 0 4 6
1 18 -6 26 -11 13 -9 14 17 8 16 -4 54 -18 84 -32 36 -16 85 -27 142 -32 48
-4 94 -12 101 -19 8 -6 17 -30 21 -52 3 -22 11 -37 16 -34 6 4 7 -1 3 -11 -5
-15 -1 -16 30 -10 20 4 56 16 81 26 53 24 131 36 139 22 13 -20 -25 -100 -63
-136 -22 -20 -43 -36 -49 -36 -19 0 -16 -25 17 -139 19 -66 30 -126 27 -139
-4 -15 -2 -21 5 -17 5 3 10 -1 10 -10 0 -9 9 -19 19 -22 11 -3 22 -12 24 -22
4 -14 5 -13 6 2 0 10 8 28 16 41 9 13 18 43 21 67 3 24 12 48 20 52 8 4 14 15
14 23 0 9 13 34 29 57 15 23 39 70 52 104 22 56 39 80 39 53 0 -5 14 -10 30
-10 26 0 30 4 30 28 1 23 2 24 11 10 13 -23 30 -23 22 -1 -5 17 -4 17 13 0 19
-18 19 -18 0 -33 -11 -8 -15 -14 -9 -14 13 0 38 -82 47 -152 3 -28 2 -48 -4
-48 -5 0 -12 -17 -16 -37 -3 -21 -20 -67 -37 -103 -17 -36 -34 -74 -38 -85 -3
-11 -16 -40 -27 -65 -11 -25 -25 -58 -31 -73 -6 -16 -20 -31 -31 -34 -11 -3
-20 -9 -20 -14 0 -5 -6 -9 -13 -9 -7 0 -26 -18 -43 -40 -16 -22 -45 -50 -64
-63 -62 -41 -232 -94 -215 -67 4 6 13 9 20 6 7 -2 15 1 18 7 3 7 35 27 71 46
36 19 66 38 66 41 0 4 -10 11 -22 14 -22 6 -22 7 -5 20 9 7 17 20 17 29 0 8
13 24 30 34 16 10 63 68 103 129 91 135 100 151 103 189 1 17 16 53 33 80 40
63 52 109 41 160 l-8 40 -1 -40 c-2 -52 -11 -86 -22 -80 -4 3 -16 -6 -25 -20
-9 -13 -20 -22 -25 -19 -5 3 -9 -5 -9 -18 -1 -13 -8 -34 -16 -48 l-15 -25 5
26 c4 17 1 26 -8 26 -8 0 -11 -8 -9 -17 3 -10 -2 -31 -11 -48 -9 -17 -16 -41
-16 -54 l-1 -23 -13 24 c-7 13 -11 31 -9 40 2 9 -3 25 -12 36 -15 19 -15 18
-13 -17 1 -20 -1 -40 -5 -44 -10 -10 -9 -26 1 -20 4 2 8 -4 8 -14 0 -10 -3
-17 -6 -15 -3 2 -11 -27 -18 -63 -7 -37 -17 -69 -22 -70 -6 -2 -10 -12 -10
-23 0 -10 -4 -19 -10 -19 -5 0 -10 10 -10 23 0 17 -2 19 -9 7 -6 -8 -7 -18 -5
-22 3 -5 -2 -11 -11 -14 -11 -5 -15 -14 -11 -30 8 -30 -16 -23 -33 9 -10 20
-11 19 -5 -8 3 -16 6 -34 7 -40 1 -5 -9 -9 -22 -7 -15 3 -21 0 -16 -8 8 -13
-13 -70 -27 -70 -5 0 -7 -4 -4 -9 10 -15 -18 -29 -39 -20 -11 4 -14 8 -7 8 7
1 10 6 7 11 -3 6 0 10 8 10 17 0 27 21 27 54 0 12 4 26 10 32 22 22 31 166 20
314 l-2 25 -7 -26 c-5 -14 -11 -55 -15 -92 -4 -37 -12 -67 -17 -67 -5 0 -9
-13 -9 -30 0 -16 -4 -30 -10 -30 -5 0 -10 -9 -10 -20 0 -13 -10 -24 -25 -30
-15 -6 -25 -17 -25 -30 0 -11 -4 -20 -10 -20 -5 0 -10 -11 -10 -24 0 -13 -6
-29 -14 -35 -11 -10 -16 -8 -21 8 -5 17 -9 19 -26 8 -10 -6 -19 -17 -19 -23 0
-6 -12 -16 -26 -22 -14 -7 -23 -16 -20 -21 7 -11 -18 -21 -55 -21 -16 0 -29
-4 -29 -10 0 -15 -16 -12 -34 6 -19 19 -22 59 -3 48 6 -4 9 -4 6 0 -4 4 11 50
32 103 22 53 39 105 39 115 0 10 3 18 8 18 4 0 8 10 8 23 1 12 5 53 9 91 8 67
8 68 -13 57 -15 -8 -25 -31 -37 -82 -15 -67 -51 -150 -68 -157 -4 -2 -10 -21
-13 -43 -10 -63 -21 -45 -27 49 -6 86 -21 146 -44 169 -16 17 -19 16 -19 -6 0
-11 3 -18 7 -16 3 3 4 -7 1 -22 -4 -20 -2 -24 8 -18 10 6 12 4 7 -8 -16 -40
-19 -52 -9 -39 10 15 29 -128 24 -188 -6 -66 -21 -68 -22 -3 0 55 -3 65 -35
103 -40 48 -39 44 -23 73 14 25 16 33 23 102 6 49 5 51 -40 100 -41 44 -46 47
-41 23 3 -14 9 -33 12 -42 3 -9 2 -16 -2 -16 -5 0 -31 35 -58 79 -41 66 -86
111 -109 111 -3 0 12 -34 34 -76 39 -77 47 -104 30 -104 -17 0 -130 101 -151
135 -21 33 -24 35 -78 35 -31 0 -81 -7 -109 -14 -49 -13 -53 -13 -53 3 0 29
-23 51 -58 55 -27 4 -36 -1 -58 -30 -14 -18 -30 -31 -35 -28 -5 3 -6 -1 -3 -9
3 -10 -4 -13 -28 -12 -18 1 -41 5 -50 10 -13 5 -18 3 -18 -9 0 -9 25 -27 65
-46 65 -31 93 -64 81 -97 -3 -7 -2 -13 2 -13 10 0 27 -46 52 -143 45 -173 114
-257 230 -280 33 -7 57 -16 53 -21 -4 -4 5 0 21 8 31 15 50 12 80 -13 24 -21
131 -161 139 -183 6 -16 21 -18 127 -18 116 0 120 1 110 19 -5 11 -10 38 -10
60 0 31 6 44 26 60 35 27 111 38 130 19 20 -19 25 -108 7 -108 -7 0 -13 -4
-13 -10 0 -5 -11 -12 -25 -16 -39 -10 -29 -24 16 -24 25 0 50 7 65 19 23 18
23 19 3 24 -58 15 44 61 118 53 32 -4 53 -2 55 4 2 6 29 14 60 17 32 3 55 10
52 14 -7 12 22 23 41 15 12 -4 13 -10 3 -31 -6 -14 -16 -25 -21 -25 -6 0 -7
-3 -4 -6 3 -4 0 -16 -8 -28 -8 -11 -15 -28 -15 -38 0 -17 59 -18 1265 -18
l1265 0 0 810 c0 446 -4 810 -8 810 -4 0 -14 -6 -22 -12 -11 -10 -11 -9 0 7 8
11 20 23 25 28 12 9 -12 27 -37 27 -22 0 -50 -29 -44 -46 3 -8 2 -14 -3 -14
-4 0 -31 -22 -58 -50 -28 -28 -55 -50 -62 -50 -6 0 -11 14 -11 30 0 40 -17 45
-73 21 l-47 -20 15 23 c13 20 14 25 1 35 -10 8 -16 9 -21 1 -3 -6 -11 -7 -17
-4 -6 4 -13 2 -17 -3 -9 -16 -51 -26 -51 -13 0 5 -19 -10 -43 -35 -24 -25 -51
-45 -60 -45 -16 0 -15 4 4 43 12 23 30 53 41 66 17 22 17 26 3 33 -8 5 -21 6
-28 1 -6 -4 6 11 28 33 50 51 91 124 69 124 -7 0 -14 -7 -14 -15 0 -8 -8 -15
-19 -15 -10 0 -29 -14 -42 -32 -79 -106 -358 -391 -408 -418 -18 -9 -19 -7
-15 18 3 15 9 31 15 36 5 6 9 17 9 26 0 8 9 22 20 30 11 8 20 19 20 25 0 6 8
26 19 45 10 19 22 50 25 67 4 18 12 35 17 38 21 13 1 125 -22 125 -4 0 -13 -8
-18 -17 -9 -15 -10 -14 -11 10 0 15 -7 30 -14 33 -8 3 -20 30 -26 60 -14 68
-28 77 -36 24 -9 -57 -20 -58 -28 -2 -9 65 -18 78 -40 57 -9 -10 -18 -16 -19
-14 -1 2 -7 14 -14 25 -17 31 13 59 48 46 18 -7 37 -3 79 16 30 13 57 27 60
31 7 9 88 46 133 62 44 15 81 49 54 49 -9 0 -19 -4 -22 -10 -3 -5 -14 -10 -23
-9 -10 0 -4 7 16 16 17 9 32 20 32 25 0 4 6 8 14 8 16 0 66 39 51 40 -6 0 -25
-4 -43 -9 -44 -13 -41 4 6 28 36 20 36 20 10 21 -16 0 -28 5 -28 10 0 6 4 10
9 10 5 0 13 9 16 20 4 11 9 18 13 16 4 -2 8 6 8 19 1 15 -5 25 -16 28 -15 4
-21 -5 -31 -46 -6 -28 -23 -63 -38 -79 -36 -41 -238 -185 -246 -176 -3 2 9 23
26 46 17 23 28 46 25 51 -4 5 -1 13 5 17 8 4 9 26 5 65 -5 41 -4 59 4 59 7 0
9 8 4 23 -9 28 -7 71 5 75 5 2 5 19 0 40 -9 40 -3 55 11 32 6 -8 10 -10 10 -5
0 6 -4 16 -9 24 -16 25 -37 -7 -34 -53 2 -23 0 -35 -3 -28 -10 21 -25 13 -21
-10 2 -13 2 -17 0 -10 -6 17 -33 15 -33 -2 0 -8 -7 -16 -15 -20 -8 -3 -15 -16
-15 -30 0 -13 -14 -39 -32 -57 -18 -19 -33 -40 -34 -48 -2 -7 -7 -18 -13 -24
-6 -6 -11 -19 -11 -28 0 -9 -7 -22 -15 -29 -10 -9 -15 -9 -15 -1 0 6 -4 11 -8
11 -5 0 -7 -13 -4 -29 3 -24 -1 -32 -27 -47 -17 -10 -31 -24 -31 -31 0 -9 -8
-11 -25 -7 -20 5 -24 3 -19 -10 4 -11 0 -16 -14 -16 -12 0 -26 -8 -31 -17 -6
-10 -11 -14 -11 -10 0 5 -7 2 -15 -5 -36 -33 -46 -38 -68 -38 -12 0 -28 5 -34
11 -14 14 -53 -5 -53 -27 0 -9 -7 -14 -17 -12 -11 2 -17 -2 -15 -10 1 -8 -2
-10 -8 -7 -20 13 -68 16 -75 5 -3 -5 -20 -10 -36 -10 -17 0 -39 -5 -50 -11
-15 -7 -27 -6 -49 5 -16 8 -39 12 -50 9 -17 -5 -20 -1 -20 26 0 17 -4 31 -10
31 -5 0 -10 -9 -10 -20 0 -24 -15 -27 -24 -4 -3 8 -10 13 -15 10 -5 -4 -23 5
-39 19 -16 14 -35 25 -41 25 -8 0 -7 6 1 20 10 16 10 24 0 41 -16 26 -11 31
30 33 87 4 157 56 127 93 -8 9 -7 14 4 19 21 8 40 -4 33 -21 -3 -10 7 -13 40
-13 24 0 46 4 50 9 3 5 9 7 14 4 5 -3 11 -1 15 5 8 13 71 13 96 -1 13 -6 18
-16 15 -26 -4 -9 -1 -22 5 -29 6 -8 8 -14 4 -14 -4 0 -2 -7 5 -15 7 -8 21 -15
31 -15 21 0 38 22 21 28 -7 2 -12 8 -12 13 0 12 38 11 42 -1 2 -6 16 -12 33
-13 21 -1 30 3 33 16 2 12 -3 17 -16 17 -15 0 -22 9 -27 31 -4 17 -4 33 -1 36
3 4 6 -4 6 -17 0 -34 18 -12 21 25 1 17 -2 38 -6 48 -10 23 -3 29 32 30 15 1
33 7 38 14 6 7 22 9 38 6 23 -5 28 -10 23 -26 -3 -12 0 -27 6 -34 7 -9 7 -13
-1 -13 -6 0 -11 -9 -11 -20 0 -29 21 -24 56 13 30 31 37 51 48 147 3 20 8 49
12 65 5 17 7 37 6 46 -2 9 4 22 13 29 12 10 16 9 21 -4 5 -13 9 -14 20 -5 11
9 15 8 20 -5 8 -21 33 -20 50 2 13 16 15 16 29 -2 8 -10 12 -24 8 -30 -3 -6 2
-4 12 5 15 15 16 21 4 55 -14 41 -39 85 -39 69 0 -5 -7 1 -16 13 -8 12 -22 22
-31 22 -28 0 -91 34 -96 52 -3 11 -11 15 -25 11 -11 -2 -31 1 -45 9 -33 18
-216 177 -207 179 3 1 34 3 70 4 75 3 179 13 230 21 51 9 97 57 116 123 9 31
20 61 26 68 5 7 16 32 23 55 12 39 14 40 14 13 l1 -29 17 24 c13 19 14 25 3
28 -8 3 -2 10 16 18 16 8 20 12 9 9 -17 -4 -23 2 -30 27 -7 22 -18 34 -34 38
-26 6 -50 50 -27 50 7 0 20 -7 27 -16 10 -13 24 -15 59 -10 25 3 54 7 65 8 27
4 22 -26 -11 -61 -13 -14 -24 -30 -24 -36 0 -5 23 -23 51 -40 67 -39 87 -78
129 -247 19 -76 38 -138 42 -138 4 0 8 8 8 17 0 10 12 1 31 -25 l31 -43 13 25
c14 26 12 110 -3 168 -5 20 -8 39 -6 41 7 7 -17 107 -26 107 -5 0 -11 15 -15
33 -10 46 -45 119 -69 140 -12 10 -21 24 -21 32 0 7 -12 24 -27 39 -31 28 -35
53 -13 82 16 21 20 50 8 56 -5 2 -15 19 -24 39 -15 31 -15 43 -3 114 11 61 11
81 2 86 -7 5 -18 3 -24 -2 -9 -7 -21 -5 -38 6 -25 16 -26 16 -26 -1 -1 -18 -1
-18 -11 -1 -6 9 -14 15 -20 12 -5 -4 -9 -2 -9 3 0 6 7 12 15 16 8 3 15 16 14
28 0 23 0 23 -10 -2 -7 -17 -12 -21 -18 -12 -12 19 -35 -31 -26 -58 7 -23 -11
-80 -26 -80 -12 0 -11 27 1 35 6 4 8 11 5 16 -4 5 -1 9 5 9 7 0 9 8 5 20 -3
11 -1 35 6 54 7 19 9 42 4 52 -7 17 -8 17 -15 -6 -7 -21 -8 -19 -9 15 -1 30
-4 36 -11 25 -5 -8 -10 -26 -10 -39 0 -13 -3 -21 -7 -17 -5 4 -7 35 -6 69 1
34 -1 51 -4 37 -10 -52 -23 -44 -24 16 l-2 59 -8 -64 c-10 -77 -19 -91 -19
-28 0 26 -4 47 -8 47 -4 0 -6 -15 -4 -34 2 -18 -1 -36 -6 -40 -6 -4 -9 17 -6
59 1 35 -1 67 -6 70 -6 4 -10 -10 -11 -32 0 -29 -2 -34 -8 -18 -5 11 -6 24 -4
28 6 11 -27 48 -38 42 -9 -6 -16 17 -18 59 -2 49 -11 43 -11 -8 0 -31 -4 -45
-11 -41 -6 4 -8 13 -6 19 3 7 2 28 -3 47 -7 31 -8 32 -9 7 -2 -47 -18 -31 -19
18 -1 26 -4 49 -7 52 -5 5 -9 -46 -6 -83 2 -16 -2 -14 -18 10 -12 17 -19 35
-16 42 2 7 -2 10 -11 6 -11 -4 -14 5 -14 38 0 24 -5 51 -10 59 -7 11 -10 7
-10 -17 0 -58 -18 -35 -25 32 -4 36 -11 65 -16 65 -5 0 -6 -13 -2 -30 7 -35
-4 -40 -17 -7 -7 19 -9 19 -9 3 -1 -17 -3 -17 -21 4 -11 13 -20 18 -20 11 0
-26 -20 2 -26 37 -4 20 -13 45 -22 54 -14 16 -16 16 -27 2 -10 -15 -13 -15
-27 0 -9 9 -23 16 -31 16 -8 0 -24 9 -36 19 -13 11 -29 17 -37 14 -8 -3 -14
-1 -14 4 0 5 -6 10 -12 11 -35 3 -65 9 -76 16 -7 4 -12 2 -12 -5 0 -8 -6 -6
-18 4 -28 25 -48 21 -159 -37z m788 -475 c6 10 9 8 9 -10 0 -20 -2 -21 -15
-11 -8 7 -14 22 -14 34 2 19 2 18 6 -3 4 -19 7 -21 14 -10z m116 -153 c-3 -7
-5 -2 -5 12 0 14 2 19 5 13 2 -7 2 -19 0 -25z m-1530 -10 c-3 -7 -5 -2 -5 12
0 14 2 19 5 13 2 -7 2 -19 0 -25z m1462 5 c8 -14 12 -15 22 -6 9 9 16 10 26 2
19 -16 16 -29 -12 -55 -29 -27 -31 -37 -9 -59 15 -14 17 -14 29 1 11 16 13 16
24 -4 6 -11 11 -30 11 -41 0 -12 5 -21 10 -21 6 0 10 -7 10 -15 0 -8 5 -15 10
-15 6 0 10 -4 10 -9 0 -17 -45 -8 -73 16 -16 13 -32 23 -37 23 -4 0 -29 18
-56 39 -26 22 -50 39 -53 38 -3 0 -26 9 -50 21 -25 12 -50 22 -57 22 -7 0 -10
8 -7 20 5 19 6 19 18 4 7 -10 27 -18 49 -18 24 -1 35 -5 32 -13 -4 -9 4 -11
25 -9 16 2 31 0 34 -4 5 -9 42 -6 52 4 4 4 1 11 -6 15 -7 5 -13 22 -13 37 0
16 -5 32 -12 36 -8 6 -8 8 1 8 7 0 16 -8 22 -17z m-1495 -57 c-3 -21 -8 -35
-11 -32 -2 2 -1 20 3 40 3 21 8 35 11 32 2 -2 1 -20 -3 -40z m1583 22 c-3 -8
-6 -5 -6 6 -1 11 2 17 5 13 3 -3 4 -12 1 -19z m30 -10 c-3 -7 -5 -2 -5 12 0
14 2 19 5 13 2 -7 2 -19 0 -25z m-1630 -110 c-3 -7 -5 -2 -5 12 0 14 2 19 5
13 2 -7 2 -19 0 -25z m1148 13 c28 -4 44 -9 38 -10 -7 0 -13 -6 -13 -12 0 -6
7 -8 16 -5 19 7 102 -13 111 -27 7 -11 -28 -39 -56 -44 -9 -1 -54 -8 -101 -14
-88 -11 -120 -27 -120 -61 0 -10 -6 -17 -12 -15 -7 1 -14 -8 -16 -20 -2 -13
-10 -23 -18 -23 -20 0 -29 -27 -14 -45 10 -12 7 -16 -15 -25 -15 -6 -36 -8
-46 -5 -19 6 -49 -15 -49 -34 0 -6 9 -11 19 -11 11 0 23 -5 27 -12 4 -6 3 -8
-4 -4 -5 3 -12 1 -14 -6 -2 -6 -11 -13 -19 -15 -49 -12 -81 -14 -96 -8 -17 6
-17 7 0 16 23 13 22 52 -2 73 -11 10 -43 20 -75 23 -42 4 -57 10 -61 24 -4 11
-11 19 -16 19 -5 0 -9 8 -9 18 0 14 -18 27 -63 46 -52 22 -73 26 -123 22 -120
-10 -112 27 19 92 75 36 99 43 170 47 45 3 107 10 137 15 30 6 71 12 90 14 52
6 258 -3 315 -13z m-1135 -53 c0 -5 -9 -21 -20 -35 l-20 -26 0 41 c0 35 2 39
20 35 11 -3 20 -10 20 -15z m1727 -48 c-3 -11 -1 -20 4 -20 5 0 9 6 9 13 0 8
7 14 15 14 17 0 13 -21 -12 -69 -16 -32 -25 -34 -47 -12 -21 20 -20 53 1 76
21 24 37 23 30 -2z m-1752 -126 c3 -40 1 -52 -5 -39 -9 21 -14 112 -5 103 3
-3 7 -31 10 -64z m1362 -38 c3 -3 -3 -5 -13 -6 -11 0 -51 -4 -90 -8 -61 -6
-71 -5 -66 8 10 29 16 33 22 16 5 -16 7 -16 29 3 21 18 26 19 68 6 25 -8 47
-16 50 -19z m-232 4 c-3 -5 -11 -10 -16 -10 -6 0 -7 5 -4 10 3 6 11 10 16 10
6 0 7 -4 4 -10z m-562 -21 c15 -7 27 -16 27 -21 0 -4 7 -8 15 -8 8 0 15 -4 15
-9 0 -5 11 -12 25 -15 45 -12 17 -24 -32 -14 -27 5 -115 7 -198 6 -138 -3
-150 -2 -153 15 -2 12 4 20 17 24 11 3 18 9 15 14 -3 5 8 9 25 9 16 0 33 5 37
11 9 15 168 6 207 -12z m515 -9 c-7 -11 -23 -20 -35 -20 -31 0 -29 14 5 27 40
16 43 15 30 -7z m337 -38 c5 -3 28 -5 52 -3 54 3 80 -5 94 -30 11 -22 3 -59
-13 -59 -5 0 -8 7 -4 15 3 8 1 15 -4 15 -6 0 -10 -6 -10 -13 0 -8 -11 -19 -25
-25 -23 -11 -29 -8 -58 22 -52 54 -81 63 -172 55 -101 -9 -135 12 -40 24 44 6
168 5 180 -1z m-2440 -27 c50 -3 149 -8 220 -10 72 -2 152 -8 179 -15 150 -34
293 -99 185 -84 -24 4 -55 6 -68 5 -13 0 -30 7 -37 18 -15 20 -117 43 -204 46
-42 1 -234 15 -290 20 -59 6 -110 18 -110 27 0 5 8 7 18 4 9 -3 58 -8 107 -11z
m2178 8 c-7 -2 -19 -2 -25 0 -7 3 -2 5 12 5 14 0 19 -2 13 -5z m-83 -33 c-25
-16 -53 -30 -62 -30 -25 0 -29 -14 -10 -32 9 -8 24 -25 32 -37 23 -33 126 -61
226 -61 45 0 94 -5 107 -11 20 -9 32 -7 62 7 20 9 39 23 42 31 3 7 13 13 24
13 10 0 30 11 45 25 41 38 48 32 41 -35 -17 -154 -90 -194 -362 -195 -114 0
-146 3 -171 17 -65 36 -122 128 -131 212 -7 64 13 91 58 81 23 -5 28 -4 23 8
-6 18 34 35 86 36 l35 1 -45 -30z m-1063 -2 c-3 -8 -6 -5 -6 6 -1 11 2 17 5
13 3 -3 4 -12 1 -19z m453 -14 c0 -2 -9 -4 -21 -4 -11 0 -18 4 -14 10 5 8 35
3 35 -6z m-183 -22 c-10 -22 -12 -22 -18 -5 -8 22 -4 30 15 30 11 0 12 -5 3
-25z m116 21 c-7 -2 -21 -2 -30 0 -10 3 -4 5 12 5 17 0 24 -2 18 -5z m207 -13
c0 -5 -7 -7 -15 -4 -8 4 -15 8 -15 10 0 2 7 4 15 4 8 0 15 -4 15 -10z m-520
-20 c-6 -11 -12 -20 -14 -20 -2 0 -2 9 1 20 3 11 9 20 15 20 5 0 4 -9 -2 -20z
m578 8 c18 -18 16 -59 -3 -52 -8 4 -15 12 -15 20 0 8 -3 13 -7 13 -19 -3 -23
2 -11 16 16 18 21 18 36 3z m-510 -20 c-2 -13 -11 -24 -20 -26 -21 -4 -24 18
-6 36 19 19 30 14 26 -10z m-504 -44 c5 -12 2 -15 -10 -10 -8 3 -18 6 -20 6
-3 0 -2 5 1 10 9 15 22 12 29 -6z m1194 -9 c-3 -14 -2 -25 1 -25 4 0 14 -12
23 -27 9 -16 25 -38 35 -50 45 -54 51 -62 47 -66 -3 -2 9 -16 26 -30 16 -14
30 -35 30 -46 0 -18 6 -21 38 -21 45 0 77 -27 66 -55 -5 -12 -4 -16 3 -12 10
6 12 -25 4 -66 0 -4 -27 -5 -59 -1 -54 6 -63 4 -123 -29 l-64 -35 -43 19 c-23
10 -46 19 -50 20 -4 1 -17 5 -30 10 -13 5 -44 9 -68 9 -57 0 -84 14 -84 45 0
40 11 54 56 74 39 18 44 24 44 53 0 20 13 52 33 82 63 96 69 109 63 137 -6 32
0 39 32 39 21 0 24 -4 20 -25z m517 0 c0 -14 -8 -21 -27 -23 -24 -3 -28 0 -28
23 0 23 4 26 28 23 19 -2 27 -9 27 -23z m-1368 -7 c-3 -8 -6 -5 -6 6 -1 11 2
17 5 13 3 -3 4 -12 1 -19z m163 -3 c0 -9 9 -34 21 -57 21 -40 33 -41 42 -3 4
17 5 17 6 -4 0 -13 9 -30 19 -37 16 -12 15 -15 -10 -39 -16 -14 -28 -32 -28
-39 0 -17 29 -43 55 -49 16 -4 15 -5 -5 -5 -50 -2 -110 55 -110 106 0 12 -4
22 -8 22 -4 0 -8 8 -8 18 -1 9 -6 36 -12 60 -10 41 -9 42 14 42 15 0 24 -6 24
-15z m531 -9 c5 3 9 0 9 -5 0 -6 -9 -11 -20 -11 -17 0 -19 -3 -10 -19 5 -11 8
-27 5 -35 -17 -53 -15 -51 -26 -36 -7 11 -8 6 -4 -18 13 -63 -61 -102 -204
-108 -95 -4 -93 1 7 22 22 4 22 6 6 22 -10 9 -29 22 -43 28 l-26 12 41 18 c22
11 49 27 58 37 10 9 26 17 36 17 10 0 21 4 24 9 3 5 28 14 56 21 27 7 50 17
50 24 0 17 24 39 28 26 2 -5 8 -8 13 -4z m-1598 -164 c-3 -15 40 -28 45 -13 2
6 18 11 36 11 53 0 79 -43 31 -53 -18 -3 -30 2 -39 15 -18 26 -29 7 -16 -28
10 -26 13 -26 62 -21 28 4 55 12 58 18 6 8 13 8 29 0 11 -7 21 -15 21 -19 0
-14 -55 -32 -97 -32 -47 0 -65 -19 -41 -43 11 -12 246 -34 393 -38 46 -1 95
-19 95 -35 0 -8 4 -14 9 -14 5 0 20 -28 34 -62 23 -59 24 -72 20 -203 -3 -85
-9 -143 -16 -147 -7 -4 -7 -11 2 -22 10 -12 11 -31 5 -73 -4 -32 -8 -65 -9
-73 0 -8 -4 -21 -8 -28 -5 -7 -11 -28 -14 -45 -3 -18 -8 -34 -11 -37 -4 -3 -8
-11 -10 -18 -3 -18 -44 -72 -53 -72 -5 0 -18 -10 -31 -23 -33 -32 -78 -48
-130 -46 -32 2 -53 -3 -74 -18 -16 -12 -40 -23 -54 -24 -21 -3 -25 0 -23 21 1
14 -1 19 -3 13 -9 -20 -20 -15 -21 9 -2 22 42 72 56 64 14 -9 6 39 -11 63 -40
57 -259 57 -364 0 -42 -22 -60 -27 -90 -22 -29 5 -40 2 -50 -12 -7 -9 -29 -35
-49 -56 -30 -33 -42 -39 -75 -39 -22 0 -42 6 -47 13 -4 8 -21 22 -38 33 -16
10 -39 27 -49 36 -11 10 -24 18 -29 18 -5 0 -38 14 -72 30 -54 26 -64 35 -70
63 -4 17 -20 74 -36 125 -36 115 -37 144 -4 171 25 19 105 168 105 195 0 47
177 145 265 147 33 0 45 6 70 36 l29 36 -22 15 c-22 14 -22 16 -5 34 17 19 17
20 -1 33 -11 9 -15 19 -10 27 6 11 5 11 -8 0 -15 -12 -15 -9 -6 28 8 29 13 37
19 28 6 -9 9 -7 9 8 0 13 8 24 19 27 12 3 18 0 15 -7 -5 -13 64 -37 72 -24 3
5 14 6 25 3 19 -6 24 3 20 33 -2 10 15 12 71 9 45 -3 72 -8 71 -15z m1457
-102 c0 -20 -152 -160 -173 -160 -17 1 -42 21 -56 48 -6 12 -18 22 -25 22 -8
0 -19 7 -26 15 -10 12 -10 15 0 15 10 0 10 3 0 15 -10 12 -8 16 15 25 14 5 52
10 83 11 46 1 130 9 175 18 4 0 7 -3 7 -9z m-1870 -60 c0 -6 10 -8 23 -5 12 3
29 1 37 -5 13 -9 13 -11 0 -20 -8 -5 -24 -10 -35 -10 -11 0 -30 -3 -42 -6 -16
-4 -23 0 -28 16 -5 15 -2 26 6 31 19 12 39 11 39 -1z m2617 -171 c41 -43 41
-74 1 -74 -24 -1 -27 2 -22 22 6 22 5 22 -25 7 -26 -13 -30 -20 -25 -40 3 -13
1 -31 -6 -39 -6 -8 -9 -19 -5 -25 8 -13 -24 -13 -139 0 -72 9 -100 8 -149 -5
-33 -9 -63 -12 -66 -7 -3 4 -24 12 -46 17 -30 8 -41 15 -43 33 -2 12 -8 22
-13 22 -6 0 -7 -9 -4 -20 5 -14 2 -20 -9 -20 -9 0 -16 4 -16 9 0 5 -7 11 -14
14 -10 4 -13 1 -9 -9 4 -11 -5 -14 -46 -14 -28 0 -54 0 -58 -1 -18 -2 -12 20
7 26 13 4 19 12 16 21 -3 7 0 16 6 20 7 4 8 3 4 -4 -5 -8 2 -12 21 -13 15 -1
39 -3 53 -4 14 -2 31 2 37 7 7 6 26 8 43 6 25 -4 29 -2 25 13 -4 12 2 23 19
34 23 15 27 15 49 0 16 -10 34 -14 50 -10 14 4 35 2 47 -5 16 -9 25 -9 36 1
12 10 16 9 21 -9 5 -22 43 -32 43 -12 0 6 6 10 13 9 6 -2 32 1 56 5 39 7 43
10 28 21 -9 7 -17 17 -17 24 0 16 42 31 55 20 17 -16 27 -9 21 15 -7 29 5 43
17 19 5 -10 25 -34 44 -54z m-1337 2 c0 -4 -16 -8 -35 -9 -41 -3 -48 15 -7 20
29 4 42 1 42 -11z m1089 -217 c-13 -16 -45 -18 -54 -4 -7 12 34 30 53 23 9 -4
10 -9 1 -19z m-72 0 c5 -16 -16 -22 -57 -16 l-35 5 30 13 c34 15 57 14 62 -2z
m143 7 c0 -6 -4 -13 -10 -16 -5 -3 -10 -1 -10 5 0 6 -4 8 -10 5 -5 -3 -10 -1
-10 4 0 6 9 11 20 11 11 0 20 -4 20 -9z m-255 -10 c8 -15 -6 -19 -47 -14 -21
3 -35 9 -32 14 7 12 71 12 79 0z m475 -81 c12 -8 9 -10 -12 -10 -16 0 -28 5
-28 10 0 13 20 13 40 0z m-380 -25 c9 -10 9 -15 1 -15 -6 0 -11 -7 -11 -15 0
-8 9 -15 20 -15 11 0 20 -4 20 -10 0 -5 10 -10 23 -11 l22 0 -22 -11 c-13 -6
-23 -15 -23 -20 0 -13 -101 2 -125 18 -11 8 -28 14 -38 14 -14 0 -18 6 -15 28
3 26 6 27 66 30 36 2 60 7 57 12 -10 16 11 11 25 -5z m190 -20 c19 -23 7 -38
-37 -42 -41 -4 -41 -4 -30 21 6 13 15 22 19 20 3 -2 9 0 13 6 9 14 20 13 35
-5z m40 -25 c0 -11 -2 -20 -4 -20 -2 0 -6 9 -9 20 -3 11 -1 20 4 20 5 0 9 -9
9 -20z m-78 -102 c-13 -13 -26 8 -17 30 6 16 7 16 17 -1 7 -13 7 -22 0 -29z
m-1321 -260 c23 -25 24 -35 5 -35 -8 0 -14 3 -13 6 1 3 -4 16 -11 29 -16 28
-5 29 19 0z m1648 -9 c-29 -18 -44 -9 -19 11 15 11 26 15 29 8 2 -6 -3 -14
-10 -19z m-2427 -21 c-9 -9 -15 -9 -24 0 -9 9 -7 12 12 12 19 0 21 -3 12 -12z
m2483 -18 c3 -5 -1 -10 -10 -10 -9 0 -13 5 -10 10 3 6 8 10 10 10 2 0 7 -4 10
-10z m-15 -46 c0 -8 -5 -12 -10 -9 -6 4 -8 11 -5 16 9 14 15 11 15 -7z m-837
-74 c18 -33 37 -57 40 -53 4 3 7 -5 7 -19 0 -15 3 -28 8 -30 4 -1 15 -17 25
-35 22 -40 22 -121 0 -153 -15 -21 -15 -25 -1 -33 14 -9 14 -12 -1 -29 -18
-21 -61 -24 -61 -4 0 7 10 16 22 19 12 4 19 9 15 13 -4 4 -2 13 4 21 9 10 8
13 -2 13 -27 0 -51 86 -64 220 -4 41 -13 87 -21 102 -27 53 -5 28 29 -32z
m827 30 c0 -5 -2 -10 -4 -10 -3 0 -8 5 -11 10 -3 6 -1 10 4 10 6 0 11 -4 11
-10z m-1470 -23 c0 -40 -74 -97 -125 -97 -15 0 -24 -4 -20 -10 3 -5 38 -10 76
-10 97 0 109 -8 109 -75 0 -29 -4 -57 -10 -60 -5 -3 -10 -15 -10 -27 0 -19 -1
-19 -20 3 -12 15 -19 19 -20 10 0 -7 -8 -21 -18 -30 -10 -9 -24 -32 -32 -51
-16 -41 -27 -50 -57 -50 -23 0 -32 15 -12 22 18 6 13 64 -9 112 -22 46 -81 96
-115 96 -10 0 -37 -11 -60 -24 -23 -13 -60 -26 -82 -30 -22 -3 -62 -17 -90
-31 -43 -22 -58 -25 -105 -19 -80 10 -130 45 -252 180 l-37 41 46 7 c25 3 51
2 57 -3 19 -16 174 -31 245 -25 40 4 83 1 111 -7 25 -7 68 -12 95 -11 69 1
282 74 300 102 12 19 35 10 35 -13z m-955 -28 c5 -6 3 -9 -6 -9 -8 0 -33 -8
-55 -19 -71 -33 -170 -54 -228 -48 -49 5 -55 3 -60 -16 -5 -19 -8 -20 -16 -7
-9 13 -12 13 -24 -3 -8 -11 -20 -15 -31 -11 -14 6 -16 3 -10 -14 10 -34 -2
-56 -42 -76 -21 -10 -51 -24 -66 -32 -16 -8 -33 -14 -38 -14 -14 0 -10 30 5
36 7 3 29 27 47 55 23 32 41 49 55 49 22 0 84 27 84 37 0 3 -7 3 -15 -1 -21
-8 -19 -1 8 27 37 40 61 47 164 48 54 0 116 4 138 8 42 9 73 5 90 -10z m-265
-120 c0 -22 -5 -32 -20 -36 -11 -3 -20 -8 -20 -12 0 -4 -13 -17 -30 -29 -30
-22 -30 -22 -30 -2 0 11 5 20 11 20 12 0 79 69 79 82 0 4 2 8 5 8 3 0 5 -14 5
-31z m36 -31 c18 -21 18 -21 0 -15 -14 6 -17 3 -12 -8 3 -8 1 -15 -4 -15 -7 0
-11 60 -4 60 0 0 9 -10 20 -22z m-1266 -28 c-18 -11 -24 -6 -16 16 5 14 9 15
19 5 9 -9 9 -14 -3 -21z m850 -70 c0 -5 -5 -10 -11 -10 -5 0 -7 5 -4 10 3 6 8
10 11 10 2 0 4 -4 4 -10z m1570 -100 c0 -5 -4 -10 -10 -10 -5 0 -10 5 -10 10
0 6 5 10 10 10 6 0 10 -4 10 -10z m1586 -35 c-9 -9 -16 -13 -16 -8 0 12 22 34
28 28 2 -2 -3 -11 -12 -20z m-1581 5 c3 -5 -1 -10 -9 -10 -9 0 -16 5 -16 10 0
6 4 10 9 10 6 0 13 -4 16 -10z m398 -44 c13 -10 16 -21 11 -40 -6 -26 10 -38
19 -13 3 7 7 5 12 -8 4 -11 14 -36 23 -55 9 -19 17 -42 18 -50 1 -8 2 -26 3
-39 1 -20 3 -21 16 -11 17 15 19 7 5 -21 -7 -13 -7 -19 0 -19 5 0 10 -9 10
-21 0 -11 8 -33 18 -47 22 -33 39 -85 56 -179 14 -75 8 -90 -23 -60 -11 10
-12 9 -6 -2 6 -10 4 -12 -4 -7 -7 5 -10 14 -7 22 5 13 -64 184 -84 209 -4 6
-8 22 -8 37 0 20 -16 42 -67 90 -37 35 -75 67 -84 72 -37 21 -41 49 -5 36 38
-15 42 -12 14 10 l-25 21 50 -5 c28 -2 44 -2 38 1 -7 2 -13 11 -13 18 0 7 -7
15 -15 19 -20 7 -19 33 3 45 22 13 23 13 45 -3z m-168 -142 c28 -15 39 -24 26
-21 l-23 6 21 -20 c11 -11 21 -25 21 -31 0 -6 -12 2 -26 18 -14 16 -38 39 -52
51 -35 29 -28 29 33 -3z m-2 -50 c11 -14 16 -32 12 -42 -6 -15 -10 -13 -31 11
-26 30 -32 57 -11 57 6 0 20 -12 30 -26z m-1468 -245 c0 -19 -5 -23 -23 -22
-15 2 -21 -1 -16 -9 4 -7 3 -8 -4 -4 -9 5 -8 15 4 37 17 35 39 34 39 -2z
m1712 -41 c-3 -8 -6 -5 -6 6 -1 11 2 17 5 13 3 -3 4 -12 1 -19z m-447 -66 l-1
-47 -19 24 c-23 26 -26 51 -8 69 19 19 28 4 28 -46z m-1023 -59 c-3 -10 -5 -4
-5 12 0 17 2 24 5 18 2 -7 2 -21 0 -30z m-128 -58 c45 -9 86 -13 90 -10 5 3
21 1 35 -5 23 -8 26 -7 26 13 l0 22 18 -21 c9 -12 29 -24 44 -28 34 -8 87 -84
90 -130 2 -42 -20 -77 -74 -116 -47 -34 -54 -34 -81 2 -19 26 -25 87 -12 128
4 11 2 20 -4 20 -6 0 -11 -5 -11 -10 0 -6 -11 -23 -25 -38 -22 -23 -27 -25
-35 -12 -5 8 -10 23 -10 33 0 19 -20 23 -36 7 -14 -14 -47 -1 -40 15 6 17 -30
75 -48 75 -11 0 -36 46 -36 66 0 7 28 4 109 -11z m308 -71 c-3 -3 -12 -4 -19
-1 -8 3 -5 6 6 6 11 1 17 -2 13 -5z m1481 -52 c5 -32 -25 -140 -47 -171 -11
-15 -23 -40 -27 -55 -6 -24 -10 -27 -33 -21 -14 4 -45 21 -68 38 -34 26 -42
38 -43 63 0 38 14 51 73 69 48 14 87 42 87 62 0 17 30 45 44 40 6 -2 12 -13
14 -25z m-648 -42 c0 -5 -4 -10 -10 -10 -5 0 -10 5 -10 10 0 6 5 10 10 10 6 0
10 -4 10 -10z m-530 -80 c0 -5 -4 -10 -10 -10 -5 0 -10 5 -10 10 0 6 5 10 10
10 6 0 10 -4 10 -10z m-170 -4 c0 -2 -8 -10 -17 -17 -16 -13 -17 -12 -4 4 13
16 21 21 21 13z m163 -57 c-14 -24 -19 -27 -22 -13 -2 10 5 24 15 31 26 19 27
16 7 -18z m-166 -1 c-3 -8 -6 -5 -6 6 -1 11 2 17 5 13 3 -3 4 -12 1 -19z m30
-20 c-3 -8 -6 -5 -6 6 -1 11 2 17 5 13 3 -3 4 -12 1 -19z m363 12 c0 -5 -10
-10 -22 -9 -22 0 -22 1 -3 9 11 5 21 9 23 9 1 1 2 -3 2 -9z m-290 -30 c0 -5
-2 -10 -4 -10 -3 0 -8 5 -11 10 -3 6 -1 10 4 10 6 0 11 -4 11 -10z m77 -22
c-3 -8 -6 -5 -6 6 -1 11 2 17 5 13 3 -3 4 -12 1 -19z m843 2 c0 -5 -3 -10 -7
-10 -5 0 -21 -20 -38 -44 -26 -38 -34 -43 -66 -42 -23 0 -60 -11 -99 -32 -62
-31 -100 -39 -43 -8 15 8 25 15 21 16 -14 0 36 52 74 76 21 13 47 24 57 24 11
0 26 7 33 15 15 16 68 20 68 5z m-307 -195 c-3 -9 -8 -14 -10 -11 -3 3 -2 9 2
15 9 16 15 13 8 -4z"/>
<path d="M4080 3621 c0 -6 4 -13 10 -16 6 -3 7 1 4 9 -7 18 -14 21 -14 7z"/>
<path d="M3438 3313 c7 -3 16 -2 19 1 4 3 -2 6 -13 5 -11 0 -14 -3 -6 -6z"/>
<path d="M3430 3101 c0 -25 52 -121 74 -136 25 -18 41 -20 26 -2 -6 6 -31 44
-55 82 -25 39 -45 64 -45 56z"/>
<path d="M2940 2941 c0 -6 5 -13 10 -16 6 -3 10 1 10 9 0 9 -4 16 -10 16 -5 0
-10 -4 -10 -9z"/>
<path d="M2993 2894 c-16 -14 -15 -15 22 -9 50 8 66 22 26 23 -16 0 -37 -6
-48 -14z"/>
<path d="M1765 2598 c-46 -26 -59 -70 -26 -88 52 -27 276 13 269 49 -8 39
-192 68 -243 39z"/>
<path d="M1182 2529 c-60 -10 -167 -68 -167 -90 0 -11 24 -14 129 -15 127 -1
130 0 153 25 12 14 23 33 23 42 0 14 -60 51 -78 48 -4 -1 -31 -5 -60 -10z"/>
<path d="M1596 2347 c3 -10 9 -15 12 -12 3 3 0 11 -7 18 -10 9 -11 8 -5 -6z"/>
<path d="M1642 2309 c2 -8 21 -22 42 -32 62 -30 69 -96 11 -111 -14 -4 -25
-13 -25 -21 0 -32 53 -8 74 34 29 56 -7 119 -79 137 -21 5 -27 4 -23 -7z"/>
<path d="M1606 2189 c-14 -11 -26 -26 -26 -34 0 -17 27 -27 34 -12 3 7 5 6 5
-3 1 -19 41 -21 41 -3 0 7 -7 10 -15 7 -8 -4 -15 -1 -15 5 0 6 11 16 25 21 14
5 25 16 25 25 0 22 -42 19 -74 -6z"/>
<path d="M1430 2180 c-13 -8 -13 -11 0 -24 18 -17 70 -10 70 9 0 23 -43 32
-70 15z"/>
<path d="M3675 2510 c4 -6 11 -8 16 -5 14 9 11 15 -7 15 -8 0 -12 -5 -9 -10z"/>
<path d="M2364 1424 c3 -9 9 -27 12 -40 7 -26 24 -33 24 -9 0 21 -22 65 -33
65 -5 0 -6 -7 -3 -16z"/>
<path d="M1058 1483 c7 -3 16 -2 19 1 4 3 -2 6 -13 5 -11 0 -14 -3 -6 -6z"/>
<path d="M2820 1141 c0 -5 13 -11 30 -13 24 -4 27 -2 19 9 -13 15 -49 18 -49
4z"/>
<path d="M2890 1083 c0 -4 5 -15 10 -23 8 -13 10 -13 10 2 0 9 -4 20 -10 23
-5 3 -10 3 -10 -2z"/>
<path d="M1516 444 c-9 -23 -8 -24 25 -24 24 0 30 3 25 16 -3 9 -6 18 -6 20 0
12 -39 2 -44 -12z"/>
<path d="M2967 353 c-15 -14 -5 -33 24 -48 37 -20 59 -14 52 13 -7 27 -60 51
-76 35z"/>
<path d="M727 4374 c3 -8 10 -13 15 -12 16 6 14 21 -4 24 -11 1 -15 -3 -11
-12z"/>
<path d="M3682 4280 c0 -14 2 -19 5 -12 2 6 2 18 0 25 -3 6 -5 1 -5 -13z"/>
<path d="M3700 4271 c0 -5 5 -13 10 -16 6 -3 10 -2 10 4 0 5 -4 13 -10 16 -5
3 -10 2 -10 -4z"/>
<path d="M3826 4165 c4 -27 8 -52 10 -54 8 -9 2 65 -7 84 -6 13 -7 4 -3 -30z"/>
<path d="M3862 4155 c0 -16 2 -22 5 -12 2 9 2 23 0 30 -3 6 -5 -1 -5 -18z"/>
<path d="M3897 4109 c4 -13 8 -18 11 -10 2 7 -1 18 -6 23 -8 8 -9 4 -5 -13z"/>
<path d="M3926 4095 c-3 -8 -1 -15 4 -15 6 0 10 7 10 15 0 8 -2 15 -4 15 -2 0
-6 -7 -10 -15z"/>
<path d="M483 4007 c-12 -6 -23 -23 -25 -39 -5 -32 8 -38 17 -8 4 11 11 18 16
14 5 -3 6 -10 3 -16 -4 -6 -1 -8 7 -6 8 3 13 11 11 17 -1 7 2 10 7 7 5 -4 13
-1 17 6 4 7 4 10 -1 6 -10 -10 -37 11 -29 23 6 10 7 10 -23 -4z"/>
<path d="M355 4000 c3 -5 8 -10 11 -10 2 0 4 5 4 10 0 6 -5 10 -11 10 -5 0 -7
-4 -4 -10z"/>
<path d="M3992 3990 c0 -14 2 -19 5 -12 2 6 2 18 0 25 -3 6 -5 1 -5 -13z"/>
<path d="M2656 3973 c-6 -14 -5 -15 5 -6 7 7 10 15 7 18 -3 3 -9 -2 -12 -12z"/>
<path d="M535 3966 c-18 -13 -18 -14 3 -25 12 -6 22 -9 22 -5 0 4 8 1 18 -7
10 -8 7 -4 -6 9 -13 12 -20 27 -17 32 8 14 2 13 -20 -4z"/>
<path d="M4103 3920 c0 -25 2 -35 4 -22 2 12 2 32 0 45 -2 12 -4 2 -4 -23z"/>
<path d="M4120 3914 c0 -14 4 -23 9 -20 5 3 7 15 4 26 -7 28 -13 25 -13 -6z"/>
<path d="M565 3910 c3 -5 3 -15 -1 -21 -4 -8 -9 -7 -15 2 -4 7 -12 10 -16 5
-13 -12 37 -47 58 -41 11 4 19 2 19 -4 0 -8 6 -7 19 1 19 12 19 28 0 28 -6 0
-8 -4 -5 -9 3 -5 -8 -8 -24 -7 -17 1 -29 6 -28 11 2 6 9 9 16 9 9 -2 8 4 -4
17 -18 20 -29 25 -19 9z"/>
<path d="M6 3892 c-2 -4 -4 -37 -5 -73 l-1 -66 49 -22 c27 -11 55 -21 61 -21
6 0 9 -4 6 -9 -3 -4 7 -13 22 -20 25 -11 26 -10 8 4 -26 20 -17 19 40 -5 26
-11 44 -23 41 -27 -4 -3 -13 0 -21 6 -10 8 -16 9 -21 1 -6 -9 11 -14 45 -12 8
0 19 -6 23 -14 4 -8 18 -14 30 -14 26 -1 57 -22 57 -39 0 -6 14 -14 30 -18 17
-3 33 -10 36 -14 3 -5 10 -9 17 -9 6 0 2 7 -9 15 -17 14 -17 15 -1 9 17 -6 18
-5 6 13 -7 12 -19 18 -30 16 -10 -3 -30 4 -44 15 -20 16 -22 21 -9 26 8 3 13
2 10 -3 -5 -7 34 -31 50 -31 9 0 -6 55 -16 58 -5 2 -7 8 -4 14 4 5 -4 4 -17
-3 -23 -12 -23 -11 -9 6 14 17 14 18 -9 6 -15 -8 -21 -9 -17 -2 4 6 3 11 -3
11 -6 0 -8 7 -4 16 5 14 2 16 -22 10 -22 -6 -26 -4 -22 8 4 11 1 13 -10 9 -11
-4 -14 -2 -9 5 5 8 1 10 -10 5 -12 -4 -15 -3 -10 5 5 8 2 10 -9 6 -11 -4 -14
-2 -10 9 4 8 -1 17 -10 21 -10 4 -14 2 -9 -5 4 -7 1 -10 -7 -7 -8 3 -12 12
-11 19 2 8 0 11 -4 6 -4 -4 -15 0 -25 9 -11 9 -25 14 -35 10 -13 -5 -14 -4 -6
7 9 10 0 20 -43 44 -30 18 -56 29 -59 25z m281 -258 c-3 -3 -12 -4 -19 -1 -8
3 -5 6 6 6 11 1 17 -2 13 -5z"/>
<path d="M4182 3860 c0 -14 2 -19 5 -12 2 6 2 18 0 25 -3 6 -5 1 -5 -13z"/>
<path d="M710 3833 c0 -6 8 -17 18 -24 16 -13 16 -13 2 6 -8 11 -16 22 -17 24
-2 2 -3 0 -3 -6z"/>
<path d="M1415 3830 c7 -12 32 -13 39 -2 2 4 -7 9 -20 10 -15 1 -22 -2 -19 -8z"/>
<path d="M4231 3814 c0 -11 3 -14 6 -6 3 7 2 16 -1 19 -3 4 -6 -2 -5 -13z"/>
<path d="M407 3634 c-9 -10 4 -34 19 -34 8 0 13 -6 12 -12 -2 -8 7 -13 20 -12
12 0 22 -3 22 -8 0 -4 5 -8 12 -8 6 0 3 9 -7 20 -10 11 -22 20 -27 20 -14 0
-38 27 -31 34 4 3 2 6 -4 6 -5 0 -12 -3 -16 -6z"/>
<path d="M445 3541 c-7 -12 12 -24 25 -16 6 3 10 0 10 -8 0 -8 10 -17 21 -20
19 -5 19 -3 -7 24 -29 31 -39 35 -49 20z"/>
<path d="M520 3530 c0 -13 18 -22 24 -11 3 5 -1 11 -9 15 -8 3 -15 1 -15 -4z"/>
<path d="M615 3490 c3 -5 11 -10 16 -10 6 0 7 5 4 10 -3 6 -11 10 -16 10 -6 0
-7 -4 -4 -10z"/>
<path d="M546 3473 c-6 -14 -5 -15 5 -6 7 7 10 15 7 18 -3 3 -9 -2 -12 -12z"/>
<path d="M602 3466 c7 -8 17 -12 22 -9 4 3 2 9 -5 14 -22 13 -31 11 -17 -5z"/>
<path d="M4515 3470 c3 -5 8 -10 11 -10 2 0 4 5 4 10 0 6 -5 10 -11 10 -5 0
-7 -4 -4 -10z"/>
<path d="M2 3334 c-2 -22 1 -24 19 -19 16 5 19 4 14 -5 -5 -9 -1 -10 15 -5 15
5 20 4 16 -4 -5 -7 5 -11 28 -11 20 0 36 5 36 10 0 13 -49 34 -74 31 -13 -2
-16 1 -10 11 4 7 4 10 -1 6 -4 -4 -15 -3 -24 2 -13 7 -17 3 -19 -16z"/>
<path d="M4535 3340 c3 -5 8 -10 11 -10 2 0 4 5 4 10 0 6 -5 10 -11 10 -5 0
-7 -4 -4 -10z"/>
<path d="M144 3291 c4 -5 1 -12 -4 -14 -6 -3 -5 -4 2 -3 15 3 23 26 8 26 -6 0
-9 -4 -6 -9z"/>
<path d="M202 3258 c2 -6 10 -14 16 -16 7 -2 10 2 6 12 -7 18 -28 22 -22 4z"/>
<path d="M308 3213 c7 -3 16 -2 19 1 4 3 -2 6 -13 5 -11 0 -14 -3 -6 -6z"/>
<path d="M4600 3095 c0 -8 5 -15 10 -15 6 0 10 7 10 15 0 8 -4 15 -10 15 -5 0
-10 -7 -10 -15z"/>
<path d="M4592 2895 c0 -16 2 -22 5 -12 2 9 2 23 0 30 -3 6 -5 -1 -5 -18z"/>
<path d="M4418 2500 c-11 -26 -17 -105 -9 -118 5 -9 14 -10 32 -3 16 7 19 10
7 10 -14 1 -18 13 -20 64 -2 34 -6 55 -10 47z"/>
<path d="M3743 2212 c-13 -2 -23 -8 -23 -13 0 -9 37 -3 49 7 8 7 -4 10 -26 6z"/>
<path d="M3800 2124 c0 -8 5 -12 10 -9 6 4 8 11 5 16 -9 14 -15 11 -15 -7z"/>
<path d="M3786 2085 c-3 -8 -1 -15 4 -15 6 0 10 7 10 15 0 8 -2 15 -4 15 -2 0
-6 -7 -10 -15z"/>
<path d="M3750 2045 c-8 -9 -8 -15 -2 -15 12 0 26 19 19 26 -2 2 -10 -2 -17
-11z"/>
<path d="M3712 2011 c-11 -7 -42 -56 -42 -67 0 -8 48 46 53 60 7 18 7 19 -11
7z"/>
<path d="M4375 2010 c3 -5 16 -15 28 -21 22 -12 22 -12 3 10 -19 21 -43 30
-31 11z"/>
<path d="M3185 1960 c-3 -5 -1 -10 4 -10 6 0 11 5 11 10 0 6 -2 10 -4 10 -3 0
-8 -4 -11 -10z"/>
<path d="M58 1940 c-7 -11 -21 -20 -30 -20 -10 0 -18 -4 -18 -10 0 -24 54 -1
70 30 14 27 -6 27 -22 0z"/>
<path d="M4000 1931 c0 -5 5 -13 10 -16 6 -3 10 -2 10 4 0 5 -4 13 -10 16 -5
3 -10 2 -10 -4z"/>
<path d="M4161 1886 c-10 -12 -9 -20 4 -40 10 -14 24 -26 31 -26 11 0 9 7 -7
29 -12 16 -18 34 -15 40 10 16 1 14 -13 -3z"/>
<path d="M0 1868 c0 -12 1 -19 3 -17 1 2 9 12 16 22 12 14 11 17 -3 17 -10 0
-16 -8 -16 -22z"/>
<path d="M4190 1804 c0 -7 7 -27 15 -45 13 -32 14 -32 15 -8 0 14 -7 34 -15
45 -8 10 -15 14 -15 8z"/>
<path d="M4811 1739 c-18 -11 -31 -22 -28 -25 6 -7 63 22 72 36 10 16 -7 12
-44 -11z"/>
<path d="M998 1313 c7 -3 16 -2 19 1 4 3 -2 6 -13 5 -11 0 -14 -3 -6 -6z"/>
<path d="M1575 1111 c-6 -10 32 -41 51 -41 11 0 24 22 24 41 0 12 -67 12 -75
0z"/>
<path d="M1735 1078 c-9 -31 -28 -72 -38 -79 -11 -8 9 -90 25 -100 19 -12 20
-12 56 20 35 33 40 52 17 71 -9 7 -20 32 -26 57 -13 51 -25 62 -34 31z"/>
<path d="M2692 900 c0 -14 2 -19 5 -12 2 6 2 18 0 25 -3 6 -5 1 -5 -13z"/>
<path d="M86 804 c-5 -14 -4 -15 9 -4 17 14 19 20 6 20 -5 0 -12 -7 -15 -16z"/>
<path d="M57 773 c-4 -3 -7 -11 -7 -17 0 -6 5 -5 12 2 6 6 9 14 7 17 -3 3 -9
2 -12 -2z"/>
<path d="M0 713 c0 -28 5 -55 11 -59 8 -5 8 -9 -1 -14 -6 -4 -10 -24 -8 -46 3
-38 4 -36 29 41 15 44 24 86 21 94 -4 11 -7 10 -12 -5 -6 -17 -9 -15 -23 11
l-16 30 -1 -52z"/>
<path d="M1876 705 c-3 -8 -1 -15 4 -15 6 0 10 7 10 15 0 8 -2 15 -4 15 -2 0
-6 -7 -10 -15z"/>
<path d="M2240 695 c0 -8 1 -17 3 -19 1 -3 -8 -16 -21 -29 -41 -43 -58 -231
-18 -198 9 7 16 7 24 -1 9 -9 12 -8 12 3 0 9 7 29 15 45 12 25 21 131 16 197
-1 21 -31 23 -31 2z"/>
<path d="M1930 638 c0 -57 16 -121 29 -113 10 5 -8 147 -20 160 -5 5 -9 -13
-9 -47z"/>
<path d="M2160 616 c0 -9 5 -16 10 -16 6 0 10 4 10 9 0 6 -4 13 -10 16 -5 3
-10 -1 -10 -9z"/>
<path d="M2418 569 c5 -43 18 -51 31 -16 10 25 0 49 -21 53 -10 1 -12 -9 -10
-37z"/>
<path d="M1971 494 c0 -11 3 -14 6 -6 3 7 2 16 -1 19 -3 4 -6 -2 -5 -13z"/>
<path d="M304 430 c-6 -6 -25 -12 -42 -13 -18 -1 -33 -5 -33 -9 -2 -13 -6 -28
-9 -33 -1 -3 -3 -9 -4 -14 0 -5 -4 -13 -8 -17 -13 -12 -9 -44 5 -44 14 0 47
31 47 44 0 17 49 54 89 66 35 11 40 15 25 21 -28 11 -59 10 -70 -1z"/>
<path d="M0 303 c0 -119 4 -143 26 -143 8 0 14 -6 14 -14 0 -8 6 -16 14 -19
15 -6 48 -66 42 -76 -2 -3 7 -7 21 -8 19 -1 22 1 12 8 -11 7 -11 9 4 9 9 0 17
-7 17 -16 0 -9 6 -14 13 -11 19 7 107 -12 107 -24 0 -5 6 -9 14 -9 14 0 36 69
36 114 0 44 -59 24 -61 -21 0 -16 -1 -16 -9 2 -5 11 -9 14 -9 8 -1 -18 -26
-16 -70 7 -54 27 -65 64 -37 119 15 28 11 71 -6 71 -5 0 -6 -4 -3 -10 3 -6 -4
-10 -18 -10 -30 0 -75 47 -92 96 -14 37 -14 34 -15 -73z m200 -244 c0 -11 -16
-4 -42 19 -30 25 -20 35 12 12 17 -12 30 -26 30 -31z"/>
<path d="M355 370 c-3 -5 -2 -10 4 -10 5 0 13 5 16 10 3 6 2 10 -4 10 -5 0
-13 -4 -16 -10z"/>
<path d="M2076 75 c-21 -16 -14 -35 14 -35 16 0 30 18 30 41 0 13 -22 10 -44
-6z"/>
<path d="M0 10 c0 -5 7 -10 15 -10 8 0 15 5 15 10 0 6 -7 10 -15 10 -8 0 -15
-4 -15 -10z"/>
<path d="M2238 3 c7 -3 16 -2 19 1 4 3 -2 6 -13 5 -11 0 -14 -3 -6 -6z"/>
</g>
</svg>
